<?xml version="1.0" encoding="UTF-8" standalone="no"?>
<!DOCTYPE svg PUBLIC "-//W3C//DTD SVG 1.1//EN" "http://www.w3.org/Graphics/SVG/1.1/DTD/svg11.dtd">
<svg width="100%" height="100%" viewBox="0 0 2363 945" version="1.1" xmlns="http://www.w3.org/2000/svg" xmlns:xlink="http://www.w3.org/1999/xlink" xml:space="preserve" xmlns:serif="http://www.serif.com/" style="fill-rule:evenodd;clip-rule:evenodd;stroke-miterlimit:10;">
    <g id="radio-antenna" transform="matrix(1.34829,0,0,1.34829,662.029,505.42)">
        <g transform="matrix(1,0,0,1,-256,-256)">
            <clipPath id="_clip1">
                <rect x="0" y="0" width="512" height="512"/>
            </clipPath>
            <g clip-path="url(#_clip1)">
                <g>
                    <path d="M197.398,236.516L197.398,251.516L214.043,251.516L215.965,236.516L197.398,236.516Z" style="fill:rgb(141,156,168);fill-rule:nonzero;"/>
                    <g>
                        <path d="M195.352,270.916L176.065,270.916C174.383,270.916 173.02,269.553 173.02,267.871L173.02,220.162C173.02,218.48 174.383,217.117 176.065,217.117L195.352,217.117C197.034,217.117 198.397,218.48 198.397,220.162L198.397,267.871C198.398,269.553 197.034,270.916 195.352,270.916Z" style="fill:rgb(122,139,152);fill-rule:nonzero;"/>
                    </g>
                    <path d="M256,115.536C253.357,115.536 250.836,115.028 248.5,114.141L248.5,144.976C254.254,146.926 259.382,150.238 263.5,154.532L263.5,114.141C261.164,115.028 258.643,115.536 256,115.536Z" style="fill:rgb(90,108,117);fill-rule:nonzero;"/>
                    <g>
                        <path d="M248.5,53.133L248.5,74.51C250.836,73.623 253.357,73.115 256,73.115C258.643,73.115 261.164,73.623 263.5,74.51L263.5,53.133L248.5,53.133Z" style="fill:rgb(90,108,117);fill-rule:nonzero;"/>
                        <rect x="248.5" y="30.923" width="15" height="9.21" style="fill:rgb(90,108,117);fill-rule:nonzero;"/>
                        <path d="M263.5,17.923L263.5,7.5C263.5,3.357 260.142,-0 256,-0C251.858,-0 248.5,3.357 248.5,7.5L248.5,17.923L263.5,17.923Z" style="fill:rgb(90,108,117);fill-rule:nonzero;"/>
                    </g>
                    <g>
                        <path d="M300.534,373.938L296.784,344.669L265.527,304.86L281.675,284.351C276.796,282.654 272.2,280.348 267.996,277.5L256.016,292.747L233.991,264.696L246.268,250.612C243.987,244.957 242.56,238.875 242.142,232.517L227.419,249.407L223.975,276.292L246.431,304.945L215.214,344.674L211.465,373.938L246.534,419.723L197.99,483.055L216.954,483.055L256,432.079L295.045,483.055L313.961,483.055L265.452,419.738L300.534,373.938ZM255.991,407.387L220.883,361.562L255.925,317.057L290.963,361.763L255.991,407.387Z" style="fill:rgb(141,156,168);fill-rule:nonzero;"/>
                        <g>
                            <path d="M328.627,483.055L303.582,287.553C302.725,287.59 301.866,287.618 301,287.618C296.636,287.618 292.386,287.127 288.289,286.224L313.505,483.055L328.627,483.055Z" style="fill:rgb(90,108,117);fill-rule:nonzero;"/>
                            <path d="M198.495,483.055L232.507,217.563C227.269,217 222.356,215.346 217.989,212.841L183.373,483.055L198.495,483.055Z" style="fill:rgb(90,108,117);fill-rule:nonzero;"/>
                        </g>
                    </g>
                    <g>
                        <g>
                            <g>
                                <path d="M331.168,150.016C329.249,150.016 327.329,149.284 325.865,147.82C322.936,144.891 322.936,140.142 325.865,137.214C349.512,113.566 349.512,75.088 325.865,51.442C322.936,48.512 322.936,43.764 325.865,40.835C328.794,37.907 333.543,37.907 336.471,40.835C365.967,70.331 365.967,118.324 336.471,147.82C335.007,149.283 333.088,150.016 331.168,150.016Z" style="fill:rgb(254,100,111);fill-rule:nonzero;"/>
                            </g>
                            <g>
                                <path d="M355.852,177.018C353.933,177.018 352.013,176.286 350.549,174.822C347.62,171.892 347.62,167.144 350.549,164.215C389.085,125.679 389.085,62.975 350.549,24.439C347.62,21.509 347.62,16.761 350.549,13.832C353.478,10.904 358.227,10.904 361.155,13.832C405.539,58.218 405.539,130.437 361.155,174.823C359.69,176.285 357.771,177.018 355.852,177.018Z" style="fill:rgb(254,100,111);fill-rule:nonzero;"/>
                            </g>
                            <g>
                                <path d="M305.393,124.239C303.474,124.239 301.554,123.507 300.09,122.043C297.161,119.114 297.161,114.365 300.09,111.437C309.524,102.001 309.524,86.651 300.09,77.215C297.161,74.286 297.161,69.537 300.09,66.609C303.019,63.681 307.768,63.68 310.696,66.61C325.979,81.892 325.979,106.76 310.696,122.043C309.231,123.507 307.312,124.239 305.393,124.239Z" style="fill:rgb(254,100,111);fill-rule:nonzero;"/>
                            </g>
                        </g>
                        <g>
                            <g>
                                <path d="M180.832,150.016C178.913,150.016 176.993,149.284 175.529,147.819C146.033,118.323 146.033,70.33 175.529,40.834C178.458,37.906 183.207,37.906 186.135,40.834C189.064,43.764 189.064,48.512 186.135,51.441C162.488,75.087 162.488,113.565 186.135,137.213C189.064,140.142 189.064,144.891 186.135,147.819C184.67,149.283 182.75,150.016 180.832,150.016Z" style="fill:rgb(254,100,111);fill-rule:nonzero;"/>
                            </g>
                            <g>
                                <path d="M156.148,177.018C154.229,177.018 152.309,176.286 150.845,174.822C106.461,130.436 106.461,58.217 150.845,13.831C153.774,10.903 158.523,10.903 161.451,13.831C164.38,16.761 164.38,21.509 161.451,24.438C122.915,62.974 122.915,125.678 161.451,164.214C164.38,167.144 164.38,171.892 161.451,174.821C159.987,176.285 158.067,177.018 156.148,177.018Z" style="fill:rgb(254,100,111);fill-rule:nonzero;"/>
                            </g>
                            <g>
                                <path d="M206.607,124.239C204.688,124.239 202.768,123.507 201.304,122.042C186.021,106.76 186.021,81.892 201.304,66.609C204.233,63.679 208.982,63.68 211.91,66.608C214.839,69.537 214.839,74.286 211.91,77.214C202.476,86.65 202.476,102 211.91,111.436C214.839,114.365 214.839,119.114 211.91,122.042C210.446,123.507 208.527,124.239 206.607,124.239Z" style="fill:rgb(254,100,111);fill-rule:nonzero;"/>
                            </g>
                        </g>
                    </g>
                    <g>
                        <circle cx="256" cy="94.326" r="22.211" style="fill:rgb(96,183,255);"/>
                    </g>
                    <path d="M251.123,94.326C251.123,85.134 256.707,77.247 264.667,73.87C262.004,72.74 259.075,72.115 256,72.115C243.733,72.115 233.789,82.059 233.789,94.326C233.789,106.593 243.733,116.537 256,116.537C259.075,116.537 262.004,115.912 264.667,114.782C256.706,111.405 251.123,103.517 251.123,94.326Z" style="fill:rgb(38,166,254);fill-rule:nonzero;"/>
                    <g>
                        <g>
                            <circle cx="236.531" cy="180.391" r="38.391" style="fill:rgb(159,172,186);"/>
                        </g>
                        <g>
                            <circle cx="236.531" cy="180.391" r="8.773" style="fill:rgb(122,139,152);"/>
                        </g>
                    </g>
                    <g>
                        <path d="M265.57,31.923L246.43,31.923C242.288,31.923 238.93,28.566 238.93,24.423C238.93,20.28 242.288,16.923 246.43,16.923L265.57,16.923C269.712,16.923 273.07,20.28 273.07,24.423C273.07,28.566 269.712,31.923 265.57,31.923Z" style="fill:rgb(141,156,168);fill-rule:nonzero;"/>
                    </g>
                    <g>
                        <path d="M267.685,54.133L244.315,54.133C240.173,54.133 236.815,50.776 236.815,46.633C236.815,42.49 240.173,39.133 244.315,39.133L267.685,39.133C271.827,39.133 275.185,42.49 275.185,46.633C275.185,50.776 271.827,54.133 267.685,54.133Z" style="fill:rgb(141,156,168);fill-rule:nonzero;"/>
                    </g>
                    <g>
                        <path d="M406.928,512L105.072,512C102.269,512 99.997,509.728 99.997,506.925L99.997,487.13C99.997,484.327 102.269,482.055 105.072,482.055L406.928,482.055C409.731,482.055 412.003,484.327 412.003,487.13L412.003,506.924C412.004,509.728 409.731,512 406.928,512Z" style="fill:rgb(141,156,168);fill-rule:nonzero;"/>
                    </g>
                    <g>
                        <path d="M140.6,506.925L140.6,487.13C140.6,484.327 142.872,482.055 145.675,482.055L105.071,482.055C102.268,482.055 99.996,484.327 99.996,487.13L99.996,506.924C99.996,509.727 102.268,511.999 105.071,511.999L145.675,511.999C142.872,512 140.6,509.728 140.6,506.925Z" style="fill:rgb(90,108,117);fill-rule:nonzero;"/>
                    </g>
                    <g>
                        <g>
                            <circle cx="301" cy="228.618" r="60" style="fill:rgb(141,156,168);"/>
                        </g>
                        <g>
                            <path d="M267.757,228.618C267.757,200.082 287.685,176.216 314.379,170.134C310.075,169.153 305.602,168.618 301.001,168.618C267.864,168.618 241.001,195.481 241.001,228.618C241.001,261.755 267.864,288.618 301.001,288.618C305.602,288.618 310.075,288.083 314.379,287.102C287.685,281.02 267.757,257.154 267.757,228.618Z" style="fill:rgb(122,139,152);fill-rule:nonzero;"/>
                        </g>
                        <g>
                            <circle cx="301" cy="228.618" r="16.364" style="fill:white;"/>
                        </g>
                    </g>
                </g>
            </g>
        </g>
    </g>
    <g id="broadcast" transform="matrix(-0.837997,0,0,0.837997,1693.98,635.866)">
        <g transform="matrix(1,0,0,1,-256,-256)">
            <clipPath id="_clip2">
                <rect x="0" y="0" width="512" height="512"/>
            </clipPath>
            <g clip-path="url(#_clip2)">
                <g>
                    <path d="M158.384,230.859L214.142,286.617L334.339,110.662L158.384,230.859Z" style="fill:rgb(159,172,186);fill-rule:nonzero;"/>
                    <path d="M264.657,311.981L172.183,311.981L150.386,487.639L286.454,487.639L264.657,311.981Z" style="fill:rgb(89,108,118);fill-rule:nonzero;"/>
                    <path d="M276.968,411.2L264.656,311.981L172.182,311.981L162.69,388.479C197.832,408.259 237.986,415.836 276.968,411.2Z" style="fill:rgb(70,90,97);fill-rule:nonzero;"/>
                    <path d="M133.541,54.386C132.359,53.204 130.898,52.477 129.37,52.196C127.842,52.476 126.38,53.204 125.199,54.386L121.97,57.614C48.677,130.907 48.677,249.738 121.97,323.031C158.251,359.311 205.69,377.621 253.24,377.983C300.79,377.621 348.229,359.311 384.51,323.031L387.739,319.802C390.837,316.704 390.837,311.681 387.739,308.583L133.541,54.386Z" style="fill:rgb(141,156,168);fill-rule:nonzero;"/>
                    <circle cx="332.287" cy="112.713" r="20.707" style="fill:rgb(96,183,255);"/>
                    <path d="M338.303,512L98.536,512C87.737,512 78.983,503.246 78.983,492.447C78.983,481.648 87.737,472.894 98.536,472.894L338.302,472.894C349.101,472.894 357.855,481.648 357.855,492.447C357.856,503.246 349.102,512 338.303,512Z" style="fill:rgb(141,156,168);fill-rule:nonzero;"/>
                    <g>
                        <path d="M437.379,108.768C433.488,108.768 430.169,105.8 429.808,101.849C427.772,79.581 417.956,58.623 402.167,42.834C386.377,27.045 365.418,17.228 343.151,15.193C338.965,14.81 335.881,11.107 336.264,6.92C336.647,2.734 340.351,-0.356 344.537,0.033C370.341,2.391 394.631,13.769 412.931,32.07C431.231,50.37 442.609,74.66 444.968,100.464C445.351,104.65 442.267,108.354 438.081,108.737C437.846,108.758 437.611,108.768 437.379,108.768Z" style="fill:rgb(254,100,111);fill-rule:nonzero;"/>
                    </g>
                    <g>
                        <path d="M410.576,111.241C406.685,111.241 403.366,108.273 403.005,104.322C401.541,88.302 394.481,73.227 383.127,61.873C371.773,50.519 356.698,43.46 340.679,41.996C336.493,41.613 333.409,37.91 333.792,33.723C334.175,29.538 337.876,26.452 342.065,26.836C361.621,28.623 380.027,37.243 393.892,51.108C407.757,64.973 416.378,83.379 418.165,102.935C418.548,107.121 415.464,110.825 411.278,111.208C411.042,111.23 410.808,111.241 410.576,111.241Z" style="fill:rgb(254,100,111);fill-rule:nonzero;"/>
                    </g>
                    <g>
                        <path d="M383.778,113.713C379.887,113.713 376.568,110.745 376.207,106.794C375.314,97.026 371.01,87.835 364.089,80.913C357.167,73.991 347.976,69.687 338.207,68.794C334.021,68.411 330.937,64.708 331.32,60.521C331.702,56.334 335.411,53.245 339.593,53.634C352.898,54.85 365.42,60.715 374.853,70.148C384.286,79.581 390.151,92.103 391.367,105.408C391.75,109.594 388.666,113.298 384.48,113.681C384.244,113.702 384.01,113.713 383.778,113.713Z" style="fill:rgb(254,100,111);fill-rule:nonzero;"/>
                    </g>
                    <path d="M338.303,472.894L298.028,472.894C308.827,472.894 317.581,481.648 317.581,492.447C317.581,503.246 308.827,512 298.028,512L338.303,512C349.102,512 357.856,503.246 357.856,492.447C357.856,481.648 349.102,472.894 338.303,472.894Z" style="fill:rgb(122,140,152);fill-rule:nonzero;"/>
                    <path d="M390.615,308.583L136.418,54.386C133.32,51.288 128.297,51.288 125.198,54.386L121.969,57.614C118.162,61.421 114.565,65.357 111.153,69.397L350.34,308.583C353.438,311.681 353.438,316.704 350.34,319.802L347.111,323.031C315.594,354.548 275.656,372.498 234.54,376.91C289.04,382.758 345.61,364.807 387.386,323.031L390.615,319.802C393.713,316.705 393.713,311.681 390.615,308.583Z" style="fill:rgb(122,140,152);fill-rule:nonzero;"/>
                    <path d="M332.287,92.006C328.028,92.006 324.071,93.295 320.779,95.5C321.885,96.241 322.938,97.094 323.915,98.071C332.002,106.157 332.002,119.269 323.915,127.355C322.938,128.332 321.885,129.185 320.779,129.926C324.071,132.131 328.028,133.42 332.287,133.42C343.723,133.42 352.994,124.149 352.994,112.713C352.995,101.277 343.724,92.006 332.287,92.006Z" style="fill:rgb(38,166,254);fill-rule:nonzero;"/>
                </g>
            </g>
        </g>
    </g>
    <g transform="matrix(0.851872,0,0,1,-599.553,-817.299)">
        <g transform="matrix(1.17389,-0,-0,1,703.807,817.299)">
            <path d="M1467.64,646.073L1505.14,671.073L1467.64,696.073" style="fill:none;stroke:rgb(0,150,136);stroke-width:8.33px;"/>
            <path d="M825.544,671.073L1505.14,671.073" style="fill:none;stroke:rgb(0,150,136);stroke-width:8.33px;stroke-linecap:square;stroke-linejoin:round;stroke-miterlimit:1.5;stroke-dasharray:33.33,25,0,0;"/>
        </g>
    </g>
    <g transform="matrix(0.426537,0,0,1,-592.625,-817.506)">
        <g transform="matrix(2.34447,-0,-0,1,1389.39,817.506)">
            <path d="M419.954,645.866L457.454,670.866L419.954,695.866" style="fill:none;stroke:rgb(38,166,254);stroke-width:8.33px;"/>
            <path d="M120.928,670.866L457.454,670.866" style="fill:none;stroke:rgb(38,166,254);stroke-width:8.33px;stroke-linecap:square;stroke-linejoin:round;stroke-miterlimit:1.5;stroke-dasharray:33.33,25,0,0;"/>
        </g>
    </g>
    <g transform="matrix(0.426537,0,0,1,1208,-817.506)">
        <g transform="matrix(2.34447,-0,-0,1,-2832.12,817.506)">
            <path d="M2220.58,645.866L2258.08,670.866L2220.58,695.866" style="fill:none;stroke:rgb(254,100,111);stroke-width:8.33px;"/>
            <path d="M1921.55,670.866L2258.08,670.866" style="fill:none;stroke:rgb(254,100,111);stroke-width:8.33px;stroke-linecap:square;stroke-linejoin:round;stroke-miterlimit:1.5;stroke-dasharray:33.33,25,0,0;"/>
        </g>
    </g>
</svg>
